<svg width="100" height="100" viewBox="0 0 100 100" fill="none" xmlns="http://www.w3.org/2000/svg">
<g id="Group 612">
<path id="Vector" fill-rule="evenodd" clip-rule="evenodd" d="M65.1108 6.23253L93.7674 34.8891C102.077 43.1992 102.077 56.8008 93.7674 65.1109L65.1108 93.7675C56.8008 102.078 43.1992 102.078 34.8891 93.7675L6.23253 65.1109C-2.07751 56.8008 -2.07751 43.1992 6.23253 34.8891L34.8891 6.23253C43.1992 -2.07751 56.8008 -2.07751 65.1108 6.23253Z" fill="#B6DCFF"/>
<path id="Union" fill-rule="evenodd" clip-rule="evenodd" d="M33.5333 42.4H34.8V41.1334H31V31H43.6667V41.1334H39.8667V42.4H41.1334V43.6667H33.5333V42.4ZM36.0667 42.4H38.6V41.1334H36.0667V42.4ZM42.4 32.2667H32.2667V37.3333H42.4V32.2667ZM32.2667 38.6V39.8667H42.4V38.6H32.2667ZM53.7999 31H46.1999V43.6667H53.7999V31ZM52.5333 32.2667V39.8667H47.4666V32.2667H52.5333ZM49.9904 42.4H47.4666V41.1334H52.5333V42.4H50.0096C50.1741 42.3975 50.3313 42.3311 50.4478 42.2146C50.5666 42.0958 50.6333 41.9347 50.6333 41.7668C50.631 41.5991 50.5654 41.4385 50.4497 41.3171C50.3747 41.2439 50.2831 41.1901 50.1826 41.1603C50.0822 41.1305 49.9761 41.1256 49.8733 41.1461C49.8336 41.153 49.7952 41.1658 49.7593 41.1841C49.7188 41.1981 49.6803 41.2172 49.6447 41.2411C49.6118 41.2646 49.5803 41.29 49.5503 41.3171C49.4343 41.4383 49.3687 41.599 49.3667 41.7668C49.3667 41.9347 49.4334 42.0958 49.5522 42.2146C49.6687 42.3311 49.8259 42.3975 49.9904 42.4ZM58.8135 58.6767L60.2347 57.8534L62.1347 61.1467L60.7154 61.9669C60.7838 62.4318 60.7838 62.9042 60.7154 63.3691L62.1347 64.1886L60.2347 67.482L58.8135 66.6586C58.4435 66.9481 58.0351 67.1847 57.6 67.3616V69.0001H53.8V67.3616C53.3649 67.1847 52.9565 66.9481 52.5865 66.6586L52.5017 66.7074C52.1818 68.2793 48.7618 69.0001 45.5666 69.0001C42.21 69.0001 38.6 68.2071 38.6 66.4667V55.0667C38.6 53.3263 42.21 52.5334 45.5666 52.5334C48.9233 52.5334 52.5333 53.3263 52.5333 55.0667V58.6444L52.5865 58.6748C52.9565 58.3854 53.3649 58.1488 53.8 57.9718V56.3334H57.6V57.9718C58.0352 58.1494 58.4436 58.3866 58.8135 58.6767ZM50.2274 59.4779L51.1653 57.8534L51.2667 57.9129V56.6076C51.2622 56.6098 51.2573 56.6117 51.2524 56.6136C51.2475 56.6155 51.2426 56.6174 51.2382 56.6196C51.0853 56.6952 50.9221 56.766 50.7486 56.8318C50.723 56.8416 50.6961 56.8508 50.6691 56.8601L50.669 56.8601C50.6471 56.8676 50.6251 56.8752 50.6036 56.8831C50.4693 56.9313 50.3312 56.9775 50.1875 57.0206C50.1191 57.0408 50.05 57.0598 49.9797 57.0788C49.8425 57.1168 49.7017 57.1525 49.5573 57.1859L49.545 57.1888C49.4801 57.2043 49.4157 57.2197 49.3496 57.2334C49.1693 57.2718 48.9848 57.3072 48.796 57.3398L48.6896 57.3594C48.4637 57.3957 48.2336 57.4282 47.9993 57.4569L47.7966 57.4785C47.625 57.4975 47.4527 57.5146 47.2779 57.5285C47.1962 57.5355 47.1145 57.5418 47.0322 57.5475C46.8618 57.5589 46.6908 57.569 46.5192 57.5766L46.2943 57.5868C46.0511 57.595 45.8086 57.6001 45.5666 57.6001C45.3247 57.6001 45.0821 57.595 44.8389 57.5868L44.6141 57.5766C44.4425 57.569 44.2715 57.5589 44.1011 57.5475C44.0188 57.5418 43.9371 57.5355 43.8554 57.5285C43.6806 57.5146 43.5083 57.4975 43.3367 57.4785L43.134 57.4569C42.8993 57.4286 42.6691 57.3961 42.4437 57.3594L42.3373 57.3398C42.149 57.3077 41.9645 57.2722 41.7837 57.2334C41.7176 57.2197 41.6532 57.2043 41.5883 57.1888L41.576 57.1859C41.4316 57.1525 41.2908 57.1168 41.1536 57.0788C41.0833 57.0598 41.0142 57.0408 40.9458 57.0206C40.8021 56.9775 40.664 56.9313 40.5297 56.8831C40.5082 56.8752 40.4862 56.8676 40.4642 56.8601C40.4372 56.8508 40.4103 56.8416 40.3847 56.8318C40.2107 56.7655 40.0476 56.6948 39.8951 56.6196C39.8907 56.6174 39.8858 56.6155 39.8809 56.6136L39.8808 56.6136L39.8808 56.6136C39.8759 56.6117 39.871 56.6098 39.8666 56.6076V58.8667C39.9616 59.2087 41.861 60.1334 45.5666 60.1334C47.1454 60.1676 48.7193 59.9463 50.2274 59.4779ZM46.238 53.8102C46.0207 53.8038 45.7972 53.8 45.5666 53.8C41.88 53.8 39.9825 54.7152 39.8628 55.0642C39.9553 55.3656 41.4189 56.106 44.2563 56.2871C44.6629 56.3131 45.098 56.3277 45.5609 56.3277C45.7889 56.3277 46.015 56.3239 46.2323 56.3175C46.2569 56.3166 46.2815 56.3149 46.3062 56.3133C46.3449 56.3107 46.3836 56.3081 46.4223 56.3081L46.4228 56.308C46.5708 56.3023 46.7188 56.2966 46.8599 56.2878C46.9125 56.2844 46.9621 56.2801 47.0114 56.2759L47.0115 56.2759L47.0117 56.2759L47.0118 56.2759L47.0119 56.2759L47.012 56.2758L47.0122 56.2758C47.0458 56.2729 47.0792 56.2701 47.1132 56.2675L47.222 56.2592L47.2223 56.2592L47.2224 56.2592C47.2987 56.2535 47.3748 56.2478 47.4476 56.2409C47.5018 56.2355 47.5538 56.2294 47.6057 56.2233C47.6388 56.2194 47.6719 56.2155 47.7054 56.2118L47.7558 56.2062L47.756 56.2062L47.7561 56.2062H47.7561H47.7561H47.7561H47.7561H47.7562C47.8375 56.1973 47.9196 56.1883 47.993 56.1789C48.0623 56.1699 48.1274 56.1599 48.1922 56.1498L48.2463 56.1415L48.303 56.133L48.3427 56.1272L48.3429 56.1272C48.3927 56.1199 48.4428 56.1126 48.4952 56.1041C48.5546 56.0945 48.6113 56.0837 48.6678 56.0729L48.7005 56.0667L48.7441 56.0585L48.7709 56.0536L48.8236 56.0441C48.8687 56.036 48.9136 56.028 48.9563 56.0193C49.0281 56.0045 49.0953 55.9889 49.1631 55.9731L49.1632 55.9731L49.1963 55.9654C49.2165 55.9608 49.2371 55.9564 49.2577 55.9519L49.2581 55.9518C49.2974 55.9432 49.3367 55.9346 49.3736 55.9255C49.4433 55.9084 49.5082 55.8907 49.5733 55.873L49.6016 55.8654C49.6194 55.8606 49.6376 55.8558 49.6559 55.8511L49.6559 55.8511L49.656 55.8511L49.656 55.8511L49.656 55.8511C49.6883 55.8427 49.7208 55.8344 49.7511 55.8255C49.8099 55.8099 49.8643 55.7927 49.9187 55.7755L49.9614 55.7621L50.0028 55.7495C50.0323 55.7407 50.0613 55.7319 50.088 55.7228C50.1358 55.7072 50.1792 55.6913 50.2228 55.6752L50.278 55.6551C50.2911 55.6502 50.3047 55.6454 50.3183 55.6405L50.3184 55.6405C50.3402 55.6327 50.362 55.6249 50.3819 55.6171C50.4237 55.6007 50.4619 55.5844 50.4996 55.5682L50.544 55.5493L50.6333 55.5113C50.6819 55.4917 50.7236 55.4703 50.7665 55.4482L50.7665 55.4482L50.767 55.448C50.7775 55.4426 50.7888 55.4371 50.8001 55.4317L50.8002 55.4317L50.8199 55.4221C50.8281 55.4181 50.8361 55.414 50.8436 55.41C50.8719 55.3945 50.8947 55.3802 50.9169 55.3663L50.9301 55.3581L50.9487 55.3466L50.97 55.3343C50.9849 55.3258 50.9996 55.3174 51.0121 55.3093C51.0405 55.2905 51.0712 55.2671 51.0877 55.2546L51.09 55.2529C51.0956 55.2486 51.1007 55.245 51.1059 55.2413C51.1154 55.2346 51.125 55.2278 51.1381 55.2168C51.1573 55.2006 51.1749 55.182 51.1864 55.1699L51.1881 55.168L51.1964 55.1597L51.2026 55.1536L51.2026 55.1536C51.21 55.1464 51.2173 55.1394 51.223 55.1326C51.2321 55.1202 51.2401 55.1071 51.247 55.0933C51.2534 55.0832 51.2589 55.0726 51.2635 55.0616C51.1729 54.8153 50.2495 54.3105 48.4914 54.0185L48.4407 54.0116L48.3433 53.9977L48.2846 53.9891L48.2845 53.9891H48.2845C48.1898 53.9753 48.0931 53.9613 47.993 53.9482C47.9628 53.9441 47.9292 53.9405 47.8951 53.9368L47.895 53.9368L47.8949 53.9368L47.8948 53.9368C47.8667 53.9338 47.8383 53.9308 47.8112 53.9273L47.7382 53.9187L47.7381 53.9187C47.6447 53.9075 47.5513 53.8964 47.4508 53.8868C47.3977 53.8817 47.3397 53.8773 47.2814 53.8729L47.2377 53.8696L47.1753 53.8646C47.1413 53.8619 47.1076 53.8591 47.0739 53.8562L47.0738 53.8562C47.0053 53.8504 46.9367 53.8446 46.865 53.8399C46.7565 53.8331 46.6431 53.8284 46.5297 53.8238H46.5296L46.5296 53.8238L46.5295 53.8238L46.5294 53.8238L46.5293 53.8238L46.5292 53.8238L46.5288 53.8237L46.4609 53.8209C46.4329 53.8198 46.4054 53.818 46.3781 53.8162C46.332 53.8132 46.2861 53.8102 46.238 53.8102ZM45.5666 61.4001C43.4399 61.4001 41.2137 61.0834 39.8666 60.4038V62.6667C39.9616 63.0087 41.861 63.9334 45.5666 63.9334C47.3048 64.0011 49.0387 63.7179 50.665 63.1006C50.6621 63.0693 50.659 63.038 50.6559 63.0067C50.6446 62.8927 50.6333 62.7785 50.6333 62.6667C50.6336 62.4321 50.6508 62.1978 50.6846 61.9656L49.2653 61.1461L49.3249 61.0429C48.0874 61.2888 46.8282 61.4085 45.5666 61.4001ZM39.8666 64.2076V66.4667C39.9616 66.8087 41.861 67.7334 45.5666 67.7334C48.2754 67.7334 50.0146 67.2394 50.7942 66.8366L49.6048 64.7751C48.2791 65.0686 46.9244 65.2111 45.5666 65.2001C43.4424 65.2001 41.215 64.8834 39.8666 64.2076ZM59.2847 64.005L59.393 63.5464C59.5357 62.9686 59.5357 62.3648 59.393 61.787L59.2847 61.3285L60.4031 60.6819L59.7698 59.5849L58.6494 60.2316L58.3062 59.9086C57.8752 59.5 57.3547 59.1979 56.7862 59.0263L56.3333 58.8921V57.6001H55.0667V58.8921L54.6138 59.0263C54.0453 59.1979 53.5248 59.5 53.0938 59.9086L52.7506 60.2316L51.6302 59.5849L50.9969 60.6819L52.1166 61.3285L52.0083 61.787C51.8656 62.3648 51.8656 62.9686 52.0083 63.5464L52.1166 64.005L50.9969 64.6516L51.6302 65.7485L52.7506 65.1019L53.0938 65.4249C53.5248 65.8335 54.0453 66.1356 54.6138 66.3071L55.0667 66.4414V67.7334H56.3333V66.4414L56.7874 66.3071C57.3559 66.1356 57.8765 65.8335 58.3074 65.4249L58.6507 65.1019L59.7711 65.7485L60.4044 64.6516L59.2847 64.005ZM54.2924 60.5603C54.7091 60.2819 55.1988 60.1333 55.6999 60.1333C56.3718 60.1333 57.0161 60.4002 57.4912 60.8753C57.9663 61.3504 58.2332 61.9948 58.2332 62.6667C58.2332 63.1677 58.0847 63.6575 57.8063 64.0741C57.5279 64.4907 57.1323 64.8154 56.6694 65.0072C56.2065 65.1989 55.6971 65.2491 55.2057 65.1513C54.7142 65.0536 54.2628 64.8123 53.9086 64.458C53.5543 64.1037 53.313 63.6523 53.2152 63.1609C53.1175 62.6695 53.1677 62.1601 53.3594 61.6972C53.5511 61.2343 53.8758 60.8387 54.2924 60.5603ZM54.9962 63.7199C55.2045 63.8591 55.4494 63.9334 55.6999 63.9334C56.0358 63.9334 56.358 63.7999 56.5956 63.5624C56.8331 63.3248 56.9666 63.0026 56.9666 62.6667C56.9666 62.4162 56.8923 62.1713 56.7531 61.963C56.6139 61.7547 56.4161 61.5923 56.1846 61.4964C55.9532 61.4006 55.6985 61.3755 55.4528 61.4244C55.2071 61.4732 54.9814 61.5939 54.8042 61.771C54.6271 61.9482 54.5064 62.1739 54.4576 62.4196C54.4087 62.6653 54.4338 62.92 54.5296 63.1514C54.6255 63.3829 54.7879 63.5807 54.9962 63.7199ZM37.9666 44.9334H36.6999V48.7334H49.3666V51.2668H50.6333V48.7334H63.3V44.9334H62.0333V47.4667H50.6333V44.9334H49.3666V47.4667H37.9666V44.9334ZM56.3334 43.6667H69.0001V31H56.3334V43.6667ZM67.7335 42.4H57.6001V36.0667H67.7335V42.4ZM57.6001 32.2667H67.7335V34.8H57.6001V32.2667ZM59.1075 32.9509C59.1463 32.9636 59.1827 32.9829 59.2151 33.0079C59.2514 33.0297 59.2853 33.0552 59.3165 33.0839C59.4322 33.2052 59.4978 33.3658 59.5001 33.5335C59.5007 33.617 59.4848 33.6997 59.4531 33.7769C59.4215 33.8541 59.3748 33.9242 59.3158 33.9832C59.2541 34.0389 59.1835 34.0839 59.1068 34.1162C59.031 34.1496 58.949 34.1669 58.8662 34.1669C58.7833 34.1669 58.7013 34.1496 58.6255 34.1162C58.5488 34.0841 58.4781 34.0391 58.4165 33.9832C58.3279 33.8946 58.2678 33.7815 58.2441 33.6584C58.2204 33.5354 58.2341 33.408 58.2835 33.2929C58.3141 33.2153 58.3592 33.1444 58.4165 33.0839C58.4902 33.0108 58.5808 32.9571 58.6802 32.9272C58.7796 32.8974 58.8847 32.8925 58.9865 32.9129C59.0286 32.9188 59.0695 32.9316 59.1075 32.9509ZM61.2164 33.0836C61.0939 32.9706 60.9333 32.9078 60.7667 32.9078C60.6 32.9078 60.4395 32.9706 60.317 33.0836C60.2598 33.1441 60.2146 33.2151 60.184 33.2926C60.1516 33.3687 60.1344 33.4505 60.1334 33.5332C60.1312 33.6163 60.1485 33.6988 60.184 33.7739C60.2163 33.8506 60.2613 33.9212 60.317 33.9829C60.4056 34.0715 60.5188 34.1316 60.6418 34.1553C60.7649 34.179 60.8922 34.1653 61.0074 34.1159C61.084 34.0836 61.1547 34.0387 61.2164 33.9829C61.2721 33.9212 61.3171 33.8506 61.3494 33.7739C61.3828 33.6981 61.4001 33.6161 61.4001 33.5332C61.4001 33.4504 61.3828 33.3684 61.3494 33.2926C61.3172 33.2159 61.2723 33.1452 61.2164 33.0836ZM62.9074 32.9506C62.984 32.9829 63.0546 33.0279 63.1163 33.0836C63.175 33.1431 63.2203 33.2144 63.2493 33.2926C63.2828 33.3685 63.3 33.4504 63.3 33.5333C63.3 33.6162 63.2828 33.6981 63.2493 33.774C63.2171 33.8506 63.1721 33.9213 63.1163 33.983C62.9956 34.0996 62.8346 34.1654 62.6667 34.1666C62.5839 34.1656 62.5022 34.1484 62.426 34.116C62.3493 34.0838 62.2786 34.0389 62.217 33.983C62.1613 33.9213 62.1163 33.8506 62.084 33.774C62.0506 33.6981 62.0334 33.6162 62.0334 33.5333C62.0334 33.4504 62.0506 33.3685 62.084 33.2926C62.1131 33.2144 62.1584 33.1431 62.217 33.0836C62.247 33.0566 62.2785 33.0312 62.3114 33.0076C62.347 32.9838 62.3855 32.9646 62.426 32.9506C62.4619 32.9323 62.5003 32.9195 62.54 32.9126C62.6634 32.8864 62.7919 32.8997 62.9074 32.9506Z" fill="#07325A"/>
</g>
</svg>
